<svg id="svg" version="1.1" xmlns="http://www.w3.org/2000/svg" xmlns:xlink="http://www.w3.org/1999/xlink" width="400" height="184.45859872611464" viewBox="0, 0, 400,184.45859872611464"><g id="svgg"><path id="path0" d="M335.468 54.542 C 335.292 54.676,334.920 54.788,334.641 54.791 C 334.159 54.797,331.927 56.252,331.887 56.586 C 331.877 56.668,331.673 56.903,331.433 57.109 C 331.193 57.315,330.996 57.588,330.996 57.715 C 330.996 57.841,330.890 57.986,330.759 58.036 C 330.629 58.086,330.505 58.345,330.482 58.611 C 330.460 58.878,330.341 59.218,330.217 59.368 C 329.834 59.828,329.775 64.467,330.145 65.030 C 330.309 65.280,330.443 65.654,330.443 65.861 C 330.443 66.071,330.564 66.236,330.720 66.236 C 330.872 66.236,330.996 66.392,330.996 66.583 C 330.996 66.773,331.121 67.032,331.273 67.159 C 331.425 67.285,331.550 67.493,331.550 67.621 C 331.550 67.749,331.724 67.899,331.937 67.955 C 332.151 68.011,332.270 68.145,332.203 68.253 C 332.136 68.362,332.169 68.461,332.277 68.473 C 332.384 68.486,332.558 68.507,332.664 68.519 C 332.769 68.532,332.914 68.635,332.986 68.748 C 333.059 68.861,333.305 69.012,333.533 69.084 C 333.762 69.155,333.948 69.290,333.948 69.385 C 333.948 69.480,334.182 69.557,334.467 69.557 C 334.752 69.557,335.146 69.679,335.343 69.828 C 335.610 70.030,336.243 70.099,337.823 70.099 C 339.403 70.099,340.036 70.030,340.303 69.828 C 340.500 69.679,340.899 69.557,341.190 69.557 C 341.485 69.557,341.670 69.478,341.609 69.378 C 341.548 69.280,341.730 69.142,342.013 69.073 C 342.296 69.003,342.711 68.752,342.934 68.514 C 343.157 68.276,343.427 68.081,343.534 68.081 C 343.640 68.081,343.727 67.954,343.727 67.799 C 343.727 67.643,343.851 67.468,344.003 67.410 C 344.154 67.352,344.232 67.230,344.176 67.139 C 344.120 67.048,344.204 66.974,344.362 66.974 C 344.542 66.974,344.649 66.810,344.649 66.533 C 344.649 66.290,344.774 66.043,344.926 65.985 C 345.107 65.916,345.203 65.628,345.203 65.155 C 345.203 64.740,345.303 64.392,345.437 64.341 C 345.793 64.204,345.875 60.332,345.522 60.332 C 345.380 60.332,345.257 60.228,345.247 60.101 C 345.238 59.975,345.210 59.560,345.187 59.179 C 345.161 58.769,345.049 58.487,344.911 58.487 C 344.783 58.487,344.624 58.238,344.557 57.934 C 344.490 57.629,344.345 57.380,344.235 57.380 C 344.125 57.380,344.081 57.333,344.139 57.276 C 344.290 57.124,343.025 55.904,342.717 55.904 C 342.574 55.904,342.398 55.808,342.326 55.691 C 342.238 55.550,342.276 55.529,342.435 55.627 C 342.595 55.726,342.632 55.705,342.545 55.564 C 342.473 55.446,342.263 55.351,342.078 55.351 C 341.894 55.351,341.639 55.226,341.513 55.074 C 341.387 54.922,341.008 54.797,340.671 54.797 C 340.334 54.797,340.007 54.713,339.943 54.610 C 339.879 54.506,339.750 54.470,339.655 54.528 C 339.561 54.587,339.483 54.557,339.483 54.462 C 339.483 54.185,335.842 54.258,335.468 54.542 M59.788 114.737 C 59.695 114.902,59.573 115.016,59.515 114.991 C 59.070 114.796,58.302 115.020,57.779 115.498 C 57.446 115.803,57.129 116.052,57.075 116.052 C 56.819 116.052,55.351 117.768,55.351 118.069 C 55.351 118.257,55.226 118.458,55.074 118.517 C 54.891 118.587,54.797 118.876,54.797 119.367 C 54.797 119.776,54.709 120.111,54.602 120.111 C 54.494 120.111,54.458 120.194,54.520 120.295 C 54.583 120.397,54.561 120.480,54.472 120.480 C 54.181 120.480,54.232 123.846,54.530 124.302 C 54.677 124.526,54.797 124.952,54.797 125.248 C 54.797 125.543,54.913 125.882,55.056 126.000 C 55.198 126.118,55.366 126.422,55.430 126.676 C 55.494 126.929,55.626 127.087,55.725 127.026 C 55.823 126.965,55.904 127.041,55.904 127.194 C 55.904 127.347,56.049 127.557,56.227 127.660 C 56.405 127.764,56.488 127.851,56.411 127.854 C 55.924 127.874,57.780 129.151,58.296 129.151 C 58.503 129.151,58.651 129.246,58.625 129.362 C 58.600 129.479,58.861 129.609,59.206 129.653 C 59.550 129.696,60.007 129.845,60.221 129.984 C 60.762 130.336,63.966 130.323,64.523 129.966 C 64.748 129.822,65.080 129.702,65.261 129.699 C 65.442 129.696,65.752 129.571,65.949 129.422 C 66.146 129.273,66.448 129.151,66.621 129.151 C 66.793 129.151,66.987 129.015,67.051 128.848 C 67.115 128.681,67.222 128.600,67.289 128.666 C 67.474 128.852,68.450 127.835,68.450 127.456 C 68.450 127.272,68.575 127.122,68.727 127.122 C 68.879 127.122,69.004 126.995,69.004 126.839 C 69.004 126.684,69.111 126.516,69.242 126.465 C 69.372 126.415,69.500 126.110,69.524 125.787 C 69.549 125.463,69.670 125.137,69.794 125.060 C 70.197 124.811,70.189 119.558,69.785 119.554 C 69.511 119.552,69.505 119.526,69.742 119.373 C 69.926 119.253,69.942 119.193,69.788 119.191 C 69.655 119.189,69.557 118.953,69.557 118.635 C 69.557 118.266,69.465 118.081,69.280 118.081 C 69.128 118.081,69.004 117.918,69.004 117.718 C 69.004 117.471,68.915 117.389,68.727 117.461 C 68.524 117.539,68.450 117.437,68.450 117.075 C 68.450 116.794,68.371 116.632,68.266 116.697 C 68.164 116.760,68.081 116.682,68.081 116.524 C 68.081 116.366,68.011 116.236,67.925 116.236 C 67.839 116.236,67.577 116.070,67.343 115.867 C 67.109 115.664,66.815 115.498,66.689 115.498 C 66.563 115.498,66.412 115.374,66.354 115.221 C 66.284 115.040,65.997 114.945,65.519 114.945 C 65.101 114.945,64.758 114.847,64.714 114.714 C 64.585 114.327,60.005 114.349,59.788 114.737 " stroke="none" fill="#7c04e4" fill-rule="evenodd"></path><path id="path1" d="M311.716 54.505 C 311.474 54.689,310.925 54.787,310.124 54.791 C 309.268 54.795,308.832 54.880,308.672 55.074 C 308.541 55.231,308.139 55.351,307.740 55.351 C 307.353 55.351,306.913 55.475,306.761 55.627 C 306.608 55.780,306.311 55.904,306.099 55.904 C 305.888 55.904,305.570 55.979,305.394 56.071 C 305.218 56.162,304.638 56.431,304.105 56.668 C 303.572 56.904,303.137 57.162,303.137 57.239 C 303.137 57.317,302.970 57.380,302.768 57.380 C 302.563 57.380,302.399 57.503,302.399 57.657 C 302.399 57.816,302.232 57.934,302.005 57.934 C 301.788 57.934,301.418 58.141,301.183 58.395 C 300.948 58.649,300.669 58.856,300.562 58.856 C 300.456 58.856,300.369 58.981,300.369 59.133 C 300.369 59.285,300.244 59.410,300.092 59.410 C 299.940 59.410,299.815 59.499,299.815 59.607 C 299.815 59.863,299.346 60.332,299.091 60.332 C 298.982 60.332,298.893 60.457,298.893 60.609 C 298.893 60.761,298.768 60.886,298.616 60.886 C 298.464 60.886,298.339 60.973,298.339 61.079 C 298.339 61.185,298.132 61.465,297.878 61.700 C 297.625 61.935,297.417 62.304,297.417 62.521 C 297.417 62.748,297.300 62.915,297.140 62.915 C 296.988 62.915,296.863 63.031,296.863 63.172 C 296.863 63.313,296.739 63.477,296.587 63.535 C 296.435 63.594,296.310 63.843,296.310 64.089 C 296.310 64.335,296.185 64.584,296.033 64.642 C 295.881 64.701,295.756 64.912,295.756 65.112 C 295.756 65.313,295.673 65.528,295.572 65.590 C 295.470 65.653,295.387 65.891,295.387 66.120 C 295.387 66.348,295.266 66.696,295.117 66.893 C 294.968 67.090,294.843 67.553,294.840 67.923 C 294.836 68.346,294.731 68.635,294.557 68.701 C 294.367 68.774,294.280 69.071,294.280 69.650 C 294.280 70.142,294.146 70.698,293.958 70.985 C 293.654 71.449,293.635 73.130,293.635 99.648 L 293.635 127.818 294.096 128.260 C 294.988 129.117,295.264 129.151,301.208 129.151 C 304.831 129.151,306.827 129.086,306.827 128.967 C 306.827 128.865,306.933 128.782,307.062 128.782 C 307.430 128.782,307.934 128.088,307.934 127.581 C 307.934 127.296,308.038 127.122,308.210 127.122 C 308.455 127.122,308.487 124.847,308.487 107.754 L 308.487 88.386 314.899 88.318 C 322.210 88.241,323.247 88.090,323.247 87.105 C 323.247 87.014,323.372 86.892,323.524 86.834 C 323.761 86.743,323.801 86.003,323.801 81.740 C 323.801 77.430,323.763 76.753,323.524 76.753 C 323.366 76.753,323.247 76.587,323.247 76.368 C 323.247 76.109,323.065 75.914,322.694 75.774 C 322.389 75.659,322.140 75.500,322.140 75.421 C 322.140 75.342,319.068 75.277,315.314 75.277 L 308.487 75.277 308.487 73.451 C 308.487 71.999,308.544 71.604,308.764 71.520 C 308.938 71.453,309.041 71.171,309.041 70.762 C 309.041 70.404,309.117 70.111,309.210 70.111 C 309.303 70.111,309.571 69.799,309.806 69.419 C 310.437 68.395,310.745 68.081,311.117 68.081 C 311.300 68.081,311.498 67.957,311.557 67.804 C 311.615 67.652,311.862 67.528,312.105 67.528 C 312.374 67.528,312.546 67.420,312.546 67.251 C 312.546 67.012,313.228 66.974,317.579 66.974 C 322.860 66.974,323.247 66.912,323.247 66.069 C 323.247 65.980,323.372 65.859,323.524 65.800 C 323.727 65.723,323.801 65.403,323.801 64.601 C 323.801 63.800,323.875 63.480,324.077 63.402 C 324.280 63.324,324.354 63.004,324.354 62.204 C 324.354 61.594,324.476 60.879,324.630 60.584 C 325.580 58.763,324.703 55.351,323.285 55.351 C 323.047 55.351,322.727 55.226,322.575 55.074 C 322.383 54.882,321.912 54.797,321.035 54.797 C 320.189 54.797,319.747 54.721,319.696 54.566 C 319.571 54.190,312.206 54.133,311.716 54.505 M76.753 73.739 C 76.499 73.790,76.213 73.908,76.116 74.001 C 76.020 74.094,75.179 74.170,74.248 74.170 C 72.968 74.170,72.498 74.237,72.325 74.446 C 72.179 74.622,71.772 74.723,71.216 74.723 C 70.733 74.723,70.100 74.847,69.809 74.999 C 69.518 75.150,69.099 75.275,68.876 75.276 C 68.654 75.276,68.421 75.360,68.358 75.461 C 68.295 75.563,67.997 75.646,67.695 75.646 C 67.378 75.646,67.102 75.762,67.041 75.923 C 66.982 76.075,66.746 76.199,66.516 76.199 C 66.285 76.199,65.993 76.324,65.867 76.476 C 65.741 76.628,65.490 76.753,65.311 76.753 C 65.131 76.753,64.936 76.877,64.878 77.030 C 64.820 77.182,64.603 77.306,64.397 77.306 C 64.191 77.306,64.022 77.380,64.022 77.471 C 64.022 77.561,63.832 77.683,63.599 77.741 C 63.366 77.800,62.806 78.181,62.354 78.589 C 61.901 78.997,61.464 79.332,61.382 79.333 C 61.172 79.337,58.856 81.733,58.856 81.946 C 58.856 82.042,58.649 82.313,58.395 82.548 C 58.141 82.784,57.934 83.156,57.934 83.376 C 57.934 83.596,57.809 83.823,57.657 83.882 C 57.505 83.940,57.380 84.148,57.380 84.343 C 57.380 84.538,57.256 84.746,57.103 84.804 C 56.946 84.865,56.827 85.140,56.827 85.444 C 56.827 85.796,56.732 85.978,56.550 85.978 C 56.365 85.978,56.273 86.162,56.273 86.531 C 56.273 86.836,56.196 87.085,56.102 87.085 C 56.008 87.085,55.874 87.542,55.804 88.100 C 55.734 88.658,55.604 89.114,55.514 89.114 C 55.302 89.114,55.299 97.364,55.511 97.494 C 55.599 97.549,55.726 98.007,55.793 98.512 C 55.860 99.018,55.995 99.481,56.094 99.542 C 56.192 99.603,56.273 99.847,56.273 100.083 C 56.273 100.320,56.398 100.562,56.550 100.620 C 56.702 100.679,56.827 100.937,56.827 101.193 C 56.827 101.486,56.930 101.661,57.103 101.661 C 57.276 101.661,57.380 101.835,57.380 102.122 C 57.380 102.409,57.485 102.583,57.657 102.583 C 57.809 102.583,57.934 102.708,57.934 102.860 C 57.934 103.012,58.017 103.137,58.118 103.137 C 58.220 103.137,58.303 103.261,58.303 103.413 C 58.303 103.565,58.427 103.690,58.579 103.690 C 58.732 103.690,58.856 103.815,58.856 103.967 C 58.856 104.119,58.981 104.244,59.133 104.244 C 59.285 104.244,59.410 104.368,59.410 104.520 C 59.410 104.673,59.499 104.797,59.607 104.797 C 59.863 104.797,60.332 105.266,60.332 105.522 C 60.332 105.631,60.411 105.720,60.507 105.720 C 60.603 105.720,60.886 105.908,61.135 106.139 C 61.384 106.370,61.976 106.764,62.451 107.015 C 63.754 107.704,64.034 107.872,64.259 108.097 C 64.372 108.210,64.604 108.303,64.774 108.303 C 64.945 108.303,65.187 108.427,65.314 108.579 C 65.440 108.732,65.731 108.856,65.959 108.856 C 66.188 108.856,66.479 108.981,66.605 109.133 C 66.731 109.285,66.986 109.410,67.170 109.410 C 67.355 109.410,67.557 109.493,67.620 109.594 C 67.683 109.696,68.022 109.779,68.375 109.779 C 68.774 109.779,69.055 109.883,69.121 110.055 C 69.190 110.234,69.475 110.332,69.926 110.332 C 70.377 110.332,70.662 110.430,70.731 110.609 C 70.796 110.778,71.076 110.886,71.452 110.886 C 71.790 110.886,72.159 110.979,72.273 111.092 C 72.488 111.307,73.549 111.583,74.815 111.753 C 75.221 111.807,75.620 111.966,75.701 112.107 C 75.786 112.254,76.148 112.362,76.558 112.362 C 77.018 112.362,77.304 112.459,77.373 112.638 C 77.437 112.805,77.721 112.917,78.085 112.921 C 78.418 112.924,78.851 113.049,79.048 113.198 C 79.245 113.347,79.593 113.469,79.821 113.469 C 80.050 113.469,80.288 113.552,80.351 113.653 C 80.413 113.755,80.741 113.838,81.080 113.838 C 81.456 113.838,81.736 113.945,81.801 114.114 C 81.859 114.267,82.109 114.391,82.355 114.391 C 82.601 114.391,82.850 114.516,82.908 114.668 C 82.966 114.820,83.216 114.945,83.462 114.945 C 83.708 114.945,83.957 115.069,84.015 115.221 C 84.073 115.374,84.290 115.498,84.496 115.498 C 84.702 115.498,84.871 115.581,84.871 115.683 C 84.871 115.784,84.995 115.867,85.148 115.867 C 85.300 115.867,85.424 115.992,85.424 116.144 C 85.424 116.299,85.589 116.421,85.799 116.421 C 86.005 116.421,86.222 116.545,86.280 116.697 C 86.339 116.850,86.502 116.974,86.643 116.974 C 86.785 116.974,86.900 117.090,86.900 117.231 C 86.900 117.373,87.025 117.536,87.177 117.594 C 87.329 117.653,87.454 117.828,87.454 117.983 C 87.454 118.139,87.618 118.430,87.818 118.630 C 88.019 118.830,88.232 119.225,88.292 119.506 C 88.352 119.788,88.520 120.239,88.665 120.508 C 89.049 121.218,89.039 124.642,88.653 124.790 C 88.434 124.874,88.376 125.260,88.376 126.637 L 88.376 128.377 89.033 128.764 C 89.823 129.231,100.394 129.371,101.421 128.929 C 102.062 128.653,102.583 128.145,102.583 127.795 C 102.583 127.649,102.708 127.482,102.860 127.424 C 103.031 127.358,103.137 127.077,103.137 126.686 C 103.137 126.295,103.242 126.014,103.413 125.948 C 103.625 125.867,103.690 125.519,103.690 124.468 C 103.690 123.532,103.764 123.069,103.921 123.017 C 104.301 122.890,104.353 118.615,103.982 117.872 C 103.815 117.537,103.690 116.822,103.690 116.202 C 103.690 115.408,103.616 115.089,103.413 115.011 C 103.235 114.943,103.137 114.658,103.137 114.209 C 103.137 113.816,103.016 113.414,102.860 113.284 C 102.708 113.158,102.583 112.816,102.583 112.524 C 102.583 112.232,102.500 111.993,102.399 111.993 C 102.297 111.993,102.214 111.832,102.214 111.637 C 102.214 111.441,102.110 111.168,101.983 111.029 C 101.647 110.662,101.296 110.102,101.172 109.732 C 101.113 109.555,100.949 109.410,100.809 109.410 C 100.668 109.410,100.554 109.285,100.554 109.133 C 100.554 108.981,100.470 108.856,100.369 108.856 C 100.268 108.856,100.185 108.741,100.185 108.600 C 100.185 108.242,98.243 106.273,97.890 106.273 C 97.731 106.273,97.601 106.149,97.601 105.996 C 97.601 105.844,97.477 105.720,97.325 105.720 C 97.173 105.720,97.048 105.637,97.048 105.535 C 97.048 105.434,96.923 105.351,96.771 105.351 C 96.619 105.351,96.494 105.226,96.494 105.074 C 96.494 104.902,96.320 104.797,96.033 104.797 C 95.780 104.797,95.572 104.691,95.572 104.562 C 95.572 104.432,95.199 104.162,94.743 103.962 C 94.288 103.762,93.914 103.545,93.913 103.479 C 93.912 103.414,93.704 103.309,93.450 103.245 C 93.196 103.182,92.989 103.048,92.989 102.949 C 92.989 102.849,92.740 102.768,92.435 102.768 C 92.066 102.768,91.882 102.675,91.882 102.491 C 91.882 102.317,91.706 102.214,91.407 102.214 C 91.147 102.214,90.809 102.089,90.656 101.937 C 90.504 101.785,90.183 101.661,89.942 101.661 C 89.702 101.661,89.460 101.587,89.405 101.498 C 89.279 101.294,87.600 100.738,87.110 100.738 C 86.908 100.738,86.618 100.613,86.465 100.461 C 86.313 100.309,85.944 100.185,85.645 100.185 C 85.345 100.185,84.997 100.060,84.871 99.908 C 84.741 99.751,84.338 99.631,83.941 99.631 C 83.556 99.631,83.211 99.540,83.174 99.428 C 83.136 99.317,82.712 99.181,82.231 99.127 C 81.750 99.073,81.312 98.957,81.258 98.869 C 81.204 98.781,80.841 98.708,80.452 98.708 C 79.993 98.708,79.707 98.611,79.638 98.432 C 79.569 98.251,79.282 98.155,78.811 98.155 C 78.395 98.155,77.992 98.038,77.860 97.878 C 77.733 97.726,77.360 97.601,77.030 97.601 C 76.699 97.601,76.326 97.477,76.199 97.325 C 76.073 97.173,75.777 97.048,75.542 97.048 C 75.307 97.048,75.063 96.965,75.000 96.863 C 74.937 96.762,74.693 96.679,74.458 96.679 C 74.223 96.679,73.927 96.554,73.801 96.402 C 73.674 96.250,73.424 96.125,73.244 96.125 C 73.065 96.125,72.870 96.001,72.812 95.849 C 72.753 95.696,72.616 95.572,72.506 95.572 C 72.397 95.572,72.115 95.364,71.880 95.111 C 71.645 94.857,71.358 94.649,71.243 94.649 C 71.127 94.649,71.033 94.525,71.033 94.373 C 71.033 94.220,70.957 94.096,70.865 94.096 C 70.772 94.096,70.641 93.764,70.572 93.358 C 70.503 92.952,70.361 92.620,70.256 92.620 C 70.130 92.620,70.127 92.542,70.247 92.389 C 70.347 92.262,70.486 91.910,70.557 91.605 C 70.764 90.709,71.106 90.037,71.355 90.037 C 71.482 90.037,71.587 89.912,71.587 89.760 C 71.587 89.605,71.751 89.483,71.962 89.483 C 72.168 89.483,72.384 89.359,72.443 89.207 C 72.501 89.054,72.743 88.930,72.981 88.930 C 73.219 88.930,73.480 88.815,73.561 88.675 C 73.846 88.183,81.535 87.734,81.984 88.183 C 82.090 88.290,82.691 88.376,83.320 88.376 C 84.165 88.376,84.490 88.448,84.569 88.653 C 84.638 88.834,84.925 88.930,85.396 88.930 C 85.812 88.930,86.214 89.047,86.347 89.207 C 86.473 89.359,86.847 89.483,87.177 89.483 C 87.507 89.483,87.881 89.608,88.007 89.760 C 88.134 89.912,88.388 90.037,88.573 90.037 C 88.757 90.037,88.959 90.120,89.022 90.221 C 89.085 90.323,89.329 90.406,89.564 90.406 C 89.799 90.406,90.095 90.530,90.221 90.683 C 90.348 90.835,90.690 90.959,90.982 90.959 C 91.331 90.959,91.513 91.054,91.513 91.236 C 91.513 91.388,91.669 91.513,91.859 91.513 C 92.050 91.513,92.309 91.637,92.435 91.790 C 92.562 91.942,92.767 92.066,92.891 92.066 C 93.190 92.066,94.245 92.597,94.380 92.816 C 94.564 93.114,96.972 93.026,97.232 92.712 C 97.359 92.560,97.535 92.435,97.624 92.435 C 97.926 92.435,98.524 91.700,98.524 91.328 C 98.524 91.123,98.647 90.959,98.801 90.959 C 98.970 90.959,99.077 90.787,99.077 90.518 C 99.077 90.275,99.202 90.029,99.354 89.970 C 99.506 89.912,99.631 89.663,99.631 89.417 C 99.631 89.171,99.756 88.922,99.908 88.863 C 100.060 88.805,100.185 88.547,100.185 88.290 C 100.185 88.033,100.268 87.823,100.369 87.823 C 100.470 87.823,100.554 87.624,100.554 87.381 C 100.554 87.139,100.678 86.892,100.830 86.834 C 100.982 86.775,101.107 86.526,101.107 86.280 C 101.107 86.034,101.232 85.785,101.384 85.727 C 101.536 85.668,101.661 85.446,101.661 85.232 C 101.661 85.019,101.785 84.720,101.937 84.568 C 102.089 84.416,102.214 84.053,102.214 83.762 C 102.214 83.470,102.297 83.181,102.399 83.118 C 102.500 83.055,102.583 82.682,102.583 82.288 C 102.583 81.894,102.500 81.520,102.399 81.458 C 102.297 81.395,102.214 81.170,102.214 80.958 C 102.214 80.468,101.062 79.336,100.563 79.336 C 100.350 79.336,100.185 79.215,100.185 79.059 C 100.185 78.875,100.000 78.782,99.631 78.782 C 99.262 78.782,99.077 78.690,99.077 78.506 C 99.077 78.337,98.905 78.229,98.636 78.229 C 98.393 78.229,98.147 78.104,98.088 77.952 C 98.030 77.800,97.772 77.675,97.515 77.675 C 97.258 77.675,97.048 77.592,97.048 77.491 C 97.048 77.389,96.808 77.306,96.514 77.306 C 96.210 77.306,95.935 77.187,95.874 77.030 C 95.808 76.858,95.528 76.753,95.136 76.753 C 94.745 76.753,94.464 76.647,94.398 76.476 C 94.335 76.312,94.058 76.199,93.720 76.199 C 93.405 76.199,93.023 76.075,92.870 75.923 C 92.718 75.770,92.314 75.646,91.972 75.646 C 91.630 75.646,91.306 75.574,91.251 75.486 C 91.197 75.397,90.739 75.271,90.233 75.203 C 89.728 75.136,89.264 75.001,89.203 74.902 C 89.142 74.804,88.484 74.723,87.739 74.723 C 86.707 74.723,86.361 74.658,86.280 74.446 C 86.194 74.223,85.771 74.170,84.083 74.170 C 82.708 74.170,81.917 74.094,81.772 73.949 C 81.544 73.721,77.646 73.558,76.753 73.739 M134.041 74.430 C 133.777 74.631,133.215 74.713,132.068 74.717 C 131.186 74.721,130.415 74.804,130.354 74.902 C 130.293 75.001,129.830 75.136,129.324 75.203 C 128.819 75.271,128.360 75.397,128.306 75.486 C 128.252 75.574,127.969 75.646,127.678 75.646 C 127.386 75.646,127.024 75.770,126.871 75.923 C 126.719 76.075,126.391 76.199,126.143 76.199 C 125.894 76.199,125.588 76.324,125.461 76.476 C 125.335 76.628,125.032 76.753,124.787 76.753 C 124.543 76.753,124.295 76.877,124.236 77.030 C 124.178 77.182,123.971 77.306,123.777 77.306 C 123.583 77.306,123.096 77.514,122.694 77.768 C 122.292 78.021,121.878 78.229,121.775 78.229 C 121.671 78.229,121.587 78.353,121.587 78.506 C 121.587 78.678,121.412 78.782,121.125 78.782 C 120.838 78.782,120.664 78.887,120.664 79.059 C 120.664 79.211,120.540 79.336,120.387 79.336 C 120.235 79.336,120.111 79.419,120.111 79.520 C 120.111 79.622,120.028 79.705,119.926 79.705 C 119.825 79.705,119.582 79.850,119.386 80.028 C 118.717 80.635,118.466 80.812,118.273 80.812 C 118.168 80.812,118.081 80.936,118.081 81.089 C 118.081 81.241,117.957 81.365,117.804 81.365 C 117.652 81.365,117.528 81.490,117.528 81.642 C 117.528 81.794,117.431 81.919,117.314 81.919 C 117.046 81.919,116.094 82.969,115.950 83.425 C 115.891 83.611,115.765 83.764,115.670 83.764 C 115.576 83.764,115.498 83.888,115.498 84.041 C 115.498 84.193,115.374 84.317,115.221 84.317 C 115.069 84.317,114.945 84.433,114.945 84.574 C 114.945 84.716,114.820 84.879,114.668 84.938 C 114.516 84.996,114.391 85.254,114.391 85.511 C 114.391 85.803,114.288 85.978,114.114 85.978 C 113.962 85.978,113.838 86.102,113.838 86.255 C 113.838 86.407,113.755 86.531,113.653 86.531 C 113.552 86.531,113.469 86.739,113.469 86.993 C 113.469 87.280,113.364 87.454,113.192 87.454 C 113.019 87.454,112.915 87.629,112.915 87.921 C 112.915 88.178,112.791 88.436,112.638 88.494 C 112.486 88.553,112.362 88.763,112.362 88.963 C 112.362 89.162,112.237 89.450,112.085 89.602 C 111.933 89.754,111.808 90.122,111.808 90.419 C 111.808 90.716,111.725 90.959,111.624 90.959 C 111.522 90.959,111.439 91.105,111.438 91.282 C 111.437 91.460,111.313 91.843,111.161 92.134 C 111.010 92.424,110.886 92.949,110.886 93.300 C 110.886 93.651,110.761 94.062,110.609 94.215 C 110.426 94.397,110.332 94.857,110.332 95.570 C 110.332 96.269,110.251 96.675,110.101 96.725 C 109.924 96.784,109.871 98.085,109.871 102.399 C 109.871 106.712,109.924 108.013,110.101 108.072 C 110.254 108.123,110.332 108.551,110.332 109.339 C 110.332 110.226,110.402 110.555,110.609 110.634 C 110.804 110.709,110.887 111.020,110.891 111.689 C 110.895 112.230,111.014 112.793,111.168 112.997 C 111.317 113.193,111.439 113.541,111.439 113.770 C 111.439 113.998,111.522 114.236,111.624 114.299 C 111.725 114.362,111.808 114.618,111.808 114.869 C 111.808 115.120,111.933 115.373,112.085 115.431 C 112.237 115.490,112.362 115.730,112.362 115.966 C 112.362 116.202,112.486 116.519,112.638 116.671 C 112.791 116.823,112.915 117.068,112.915 117.215 C 112.915 117.362,113.040 117.586,113.192 117.712 C 113.344 117.839,113.469 118.056,113.469 118.196 C 113.469 118.336,113.552 118.450,113.653 118.450 C 113.755 118.450,113.838 118.598,113.838 118.778 C 113.838 118.958,114.087 119.379,114.391 119.712 C 114.696 120.045,114.945 120.419,114.945 120.542 C 114.945 120.666,115.090 120.897,115.268 121.056 C 115.445 121.216,115.798 121.604,116.052 121.920 C 116.305 122.235,116.617 122.497,116.744 122.501 C 116.870 122.506,116.974 122.634,116.974 122.786 C 116.974 122.938,117.099 123.063,117.251 123.063 C 117.403 123.063,117.528 123.139,117.528 123.233 C 117.528 123.443,118.606 124.539,118.814 124.539 C 118.896 124.539,119.012 124.663,119.070 124.815 C 119.129 124.968,119.299 125.092,119.448 125.092 C 119.597 125.092,119.992 125.341,120.325 125.646 C 120.658 125.950,121.078 126.199,121.259 126.199 C 121.439 126.199,121.587 126.282,121.587 126.384 C 121.587 126.485,121.701 126.568,121.841 126.568 C 121.981 126.568,122.198 126.693,122.325 126.845 C 122.451 126.997,122.700 127.122,122.878 127.122 C 123.056 127.122,123.305 127.246,123.432 127.399 C 123.558 127.551,123.861 127.675,124.106 127.675 C 124.350 127.675,124.598 127.800,124.657 127.952 C 124.717 128.110,124.992 128.229,125.296 128.229 C 125.590 128.229,125.830 128.308,125.830 128.405 C 125.830 128.502,126.142 128.631,126.522 128.692 C 126.903 128.753,127.358 128.881,127.534 128.977 C 127.711 129.073,128.178 129.151,128.573 129.151 C 128.986 129.151,129.388 129.269,129.520 129.428 C 129.689 129.631,130.137 129.705,131.210 129.705 C 132.219 129.705,132.805 129.793,133.107 129.991 C 133.685 130.370,142.078 130.318,142.205 129.935 C 142.260 129.771,142.831 129.705,144.209 129.705 C 145.753 129.705,146.158 129.650,146.243 129.428 C 146.323 129.219,146.661 129.151,147.621 129.151 C 148.321 129.151,148.893 129.079,148.893 128.990 C 148.893 128.901,149.366 128.789,149.945 128.741 C 150.523 128.693,151.028 128.558,151.067 128.441 C 151.106 128.324,151.457 128.229,151.847 128.229 C 152.237 128.229,152.681 128.104,152.833 127.952 C 152.986 127.800,153.359 127.675,153.664 127.675 C 153.968 127.675,154.342 127.551,154.494 127.399 C 154.646 127.246,154.974 127.122,155.223 127.122 C 155.471 127.122,155.778 126.997,155.904 126.845 C 156.030 126.693,156.373 126.568,156.665 126.568 C 156.957 126.568,157.196 126.485,157.196 126.384 C 157.196 126.282,157.358 126.199,157.557 126.199 C 158.072 126.199,159.215 125.597,159.221 125.323 C 159.223 125.196,159.383 125.092,159.576 125.092 C 159.958 125.092,160.701 124.002,160.701 123.441 C 160.701 123.255,160.826 123.054,160.978 122.996 C 161.222 122.902,161.255 120.405,161.255 102.058 C 161.255 83.766,161.221 81.198,160.978 80.996 C 160.826 80.870,160.698 80.590,160.695 80.374 C 160.688 79.917,160.293 79.336,159.989 79.336 C 159.873 79.336,159.779 79.211,159.779 79.059 C 159.779 78.907,159.690 78.782,159.581 78.782 C 159.472 78.782,159.259 78.658,159.106 78.506 C 158.954 78.353,158.595 78.229,158.309 78.229 C 158.017 78.229,157.742 78.108,157.682 77.952 C 157.624 77.800,157.371 77.675,157.120 77.675 C 156.869 77.675,156.613 77.592,156.550 77.491 C 156.487 77.389,156.144 77.306,155.788 77.306 C 155.431 77.306,155.015 77.182,154.863 77.030 C 154.711 76.877,154.312 76.753,153.976 76.753 C 153.641 76.753,153.263 76.628,153.137 76.476 C 153.010 76.324,152.606 76.197,152.238 76.193 C 151.869 76.190,151.407 76.066,151.210 75.917 C 151.013 75.768,150.499 75.646,150.068 75.646 C 149.637 75.646,149.239 75.573,149.183 75.483 C 149.128 75.394,148.459 75.262,147.696 75.191 C 146.934 75.119,146.310 74.985,146.310 74.892 C 146.310 74.799,145.362 74.723,144.204 74.723 C 142.682 74.723,142.076 74.659,142.020 74.493 C 141.895 74.114,134.530 74.056,134.041 74.430 M192.897 74.452 C 192.439 74.617,191.444 74.719,190.278 74.720 C 189.244 74.722,188.351 74.799,188.294 74.892 C 188.236 74.985,187.566 75.119,186.804 75.191 C 186.042 75.262,185.374 75.394,185.319 75.483 C 185.263 75.573,184.772 75.646,184.227 75.646 C 183.593 75.646,183.137 75.745,182.960 75.923 C 182.806 76.076,182.355 76.199,181.945 76.199 C 181.535 76.199,181.084 76.322,180.930 76.476 C 180.775 76.631,180.324 76.753,179.902 76.753 C 179.358 76.753,179.151 76.829,179.151 77.030 C 179.151 77.234,178.937 77.306,178.332 77.306 C 177.881 77.306,177.461 77.389,177.399 77.491 C 177.336 77.592,177.038 77.675,176.736 77.675 C 176.419 77.675,176.143 77.792,176.081 77.952 C 176.023 78.104,175.797 78.229,175.580 78.230 C 174.895 78.232,173.765 79.129,173.536 79.852 C 173.465 80.075,173.329 80.258,173.235 80.258 C 173.129 80.258,173.063 89.532,173.063 104.244 C 173.063 119.242,173.128 128.229,173.238 128.229 C 173.334 128.229,173.637 128.436,173.910 128.690 L 174.408 129.151 180.285 129.151 C 183.518 129.151,186.162 129.088,186.162 129.011 C 186.162 128.933,186.342 128.788,186.562 128.688 C 186.782 128.587,187.052 128.343,187.162 128.144 C 187.272 127.946,187.465 127.670,187.592 127.532 C 187.774 127.334,187.823 123.298,187.823 108.658 C 187.823 96.367,187.886 90.037,188.007 90.037 C 188.109 90.037,188.192 89.912,188.192 89.760 C 188.192 89.587,188.367 89.483,188.659 89.483 C 188.916 89.483,189.174 89.359,189.232 89.207 C 189.308 89.008,189.619 88.930,190.333 88.930 C 191.095 88.930,191.328 88.865,191.328 88.653 C 191.328 88.414,191.995 88.376,196.218 88.376 C 200.441 88.376,201.107 88.414,201.107 88.653 C 201.107 88.847,201.302 88.930,201.759 88.930 C 202.168 88.930,202.450 89.033,202.516 89.207 C 202.575 89.359,202.760 89.483,202.928 89.483 C 203.095 89.483,203.456 89.691,203.730 89.945 C 204.004 90.198,204.314 90.406,204.420 90.406 C 204.526 90.406,204.613 90.530,204.613 90.683 C 204.613 90.835,204.737 90.959,204.889 90.959 C 205.042 90.959,205.166 91.084,205.166 91.236 C 205.166 91.388,205.247 91.513,205.347 91.513 C 205.447 91.513,205.580 91.720,205.644 91.974 C 205.707 92.228,205.834 92.435,205.924 92.435 C 206.015 92.435,206.089 92.646,206.089 92.902 C 206.089 93.159,206.213 93.417,206.365 93.476 C 206.608 93.569,206.642 95.581,206.642 110.040 C 206.642 124.225,206.679 126.547,206.913 126.856 C 207.062 127.053,207.186 127.442,207.190 127.721 C 207.193 128.047,207.295 128.229,207.472 128.229 C 207.625 128.229,207.750 128.333,207.751 128.459 C 207.754 129.056,208.686 129.151,214.520 129.151 C 218.247 129.151,220.295 129.086,220.295 128.967 C 220.295 128.865,220.420 128.782,220.572 128.782 C 220.724 128.782,220.849 128.658,220.849 128.506 C 220.849 128.353,220.973 128.229,221.125 128.229 C 221.278 128.229,221.402 128.098,221.402 127.939 C 221.402 127.779,221.527 127.524,221.679 127.372 C 222.093 126.958,222.099 92.326,221.685 91.779 C 221.506 91.542,221.412 90.965,221.408 90.077 C 221.404 89.057,221.336 88.708,221.125 88.628 C 220.937 88.555,220.849 88.261,220.849 87.705 C 220.849 87.150,220.760 86.855,220.572 86.783 C 220.401 86.717,220.295 86.437,220.295 86.050 C 220.295 85.706,220.212 85.424,220.111 85.424 C 220.009 85.424,219.926 85.214,219.926 84.957 C 219.926 84.700,219.802 84.442,219.649 84.384 C 219.497 84.326,219.373 84.118,219.373 83.923 C 219.373 83.728,219.248 83.520,219.096 83.462 C 218.944 83.403,218.819 83.237,218.819 83.093 C 218.819 82.948,218.695 82.782,218.542 82.724 C 218.390 82.665,218.266 82.490,218.266 82.335 C 218.266 82.180,218.058 81.861,217.804 81.626 C 217.551 81.391,217.343 81.111,217.343 81.005 C 217.343 80.899,217.219 80.812,217.066 80.812 C 216.914 80.812,216.790 80.687,216.790 80.535 C 216.790 80.383,216.665 80.258,216.513 80.258 C 216.361 80.258,216.236 80.148,216.236 80.013 C 216.236 79.878,216.029 79.656,215.775 79.520 C 215.521 79.385,215.314 79.202,215.314 79.116 C 215.314 79.029,215.127 78.877,214.899 78.778 C 214.278 78.510,213.764 78.165,213.598 77.906 C 213.517 77.779,213.288 77.675,213.090 77.675 C 212.893 77.675,212.731 77.592,212.731 77.491 C 212.731 77.389,212.532 77.306,212.289 77.306 C 212.046 77.306,211.800 77.182,211.741 77.030 C 211.683 76.877,211.434 76.753,211.188 76.753 C 210.942 76.753,210.693 76.628,210.634 76.476 C 210.569 76.305,210.288 76.199,209.896 76.199 C 209.505 76.199,209.224 76.094,209.158 75.923 C 209.088 75.740,208.799 75.646,208.308 75.646 C 207.899 75.646,207.565 75.563,207.565 75.461 C 207.565 75.360,207.295 75.273,206.965 75.269 C 206.635 75.264,206.033 75.141,205.627 74.995 C 205.203 74.842,204.212 74.728,203.296 74.726 C 202.246 74.724,201.522 74.629,201.174 74.448 C 200.431 74.060,193.976 74.063,192.897 74.452 M254.140 74.441 C 253.895 74.626,253.307 74.713,252.271 74.717 C 251.440 74.721,250.710 74.804,250.649 74.902 C 250.588 75.001,250.125 75.136,249.619 75.203 C 249.114 75.271,248.656 75.397,248.601 75.486 C 248.547 75.574,248.264 75.646,247.973 75.646 C 247.682 75.646,247.319 75.770,247.167 75.923 C 247.014 76.075,246.676 76.199,246.415 76.199 C 246.117 76.199,245.941 76.302,245.941 76.476 C 245.941 76.661,245.756 76.753,245.387 76.753 C 245.018 76.753,244.834 76.845,244.834 77.030 C 244.834 77.202,244.660 77.306,244.373 77.306 C 244.119 77.306,243.911 77.389,243.911 77.491 C 243.911 77.592,243.751 77.675,243.556 77.675 C 243.360 77.675,243.075 77.800,242.923 77.952 C 242.771 78.104,242.555 78.229,242.443 78.229 C 242.331 78.229,242.192 78.353,242.133 78.506 C 242.075 78.658,241.870 78.782,241.678 78.782 C 241.486 78.782,241.328 78.907,241.328 79.059 C 241.328 79.211,241.204 79.336,241.052 79.336 C 240.899 79.336,240.775 79.413,240.775 79.508 C 240.775 79.602,240.595 79.737,240.375 79.807 C 239.929 79.948,236.716 83.120,236.716 83.418 C 236.716 83.523,236.384 83.947,235.978 84.361 C 235.541 84.806,235.240 85.291,235.240 85.546 C 235.240 85.807,235.130 85.978,234.963 85.978 C 234.811 85.978,234.686 86.140,234.686 86.338 C 234.686 86.536,234.580 86.764,234.451 86.845 C 234.140 87.040,233.210 88.874,233.210 89.293 C 233.210 89.474,233.086 89.726,232.934 89.852 C 232.781 89.979,232.657 90.269,232.657 90.498 C 232.657 90.727,232.532 91.018,232.380 91.144 C 232.228 91.270,232.103 91.647,232.103 91.981 C 232.103 92.316,232.010 92.620,231.895 92.658 C 231.781 92.697,231.646 93.160,231.595 93.689 C 231.544 94.217,231.442 94.649,231.369 94.649 C 231.295 94.649,231.186 95.226,231.127 95.932 C 231.068 96.637,230.931 97.378,230.823 97.580 C 230.506 98.172,230.570 106.190,230.899 107.103 C 231.045 107.509,231.168 108.231,231.173 108.707 C 231.177 109.183,231.253 109.617,231.341 109.672 C 231.430 109.726,231.544 110.205,231.595 110.736 C 231.646 111.266,231.781 111.731,231.895 111.770 C 232.010 111.808,232.103 112.125,232.103 112.475 C 232.103 112.870,232.208 113.151,232.380 113.217 C 232.534 113.276,232.657 113.551,232.657 113.835 C 232.657 114.116,232.781 114.449,232.934 114.576 C 233.086 114.702,233.210 114.933,233.210 115.090 C 233.210 115.487,233.803 116.790,233.984 116.790 C 234.066 116.790,234.133 116.917,234.133 117.072 C 234.133 117.228,234.257 117.403,234.410 117.461 C 234.562 117.519,234.686 117.766,234.686 118.009 C 234.686 118.278,234.794 118.450,234.963 118.450 C 235.135 118.450,235.240 118.624,235.240 118.911 C 235.240 119.165,235.302 119.373,235.378 119.373 C 235.454 119.374,235.683 119.622,235.886 119.926 C 236.089 120.230,236.349 120.479,236.465 120.479 C 236.581 120.479,236.728 120.687,236.792 120.941 C 236.855 121.195,236.989 121.402,237.088 121.402 C 237.188 121.402,237.269 121.484,237.269 121.585 C 237.269 121.859,239.429 123.943,239.852 124.078 C 240.055 124.142,240.221 124.272,240.221 124.367 C 240.221 124.461,240.346 124.539,240.498 124.539 C 240.650 124.539,240.775 124.663,240.775 124.815 C 240.775 124.968,240.891 125.092,241.032 125.092 C 241.173 125.092,241.337 125.217,241.395 125.369 C 241.454 125.521,241.661 125.646,241.856 125.646 C 242.052 125.646,242.259 125.770,242.318 125.923 C 242.376 126.075,242.551 126.199,242.706 126.199 C 242.862 126.199,242.989 126.282,242.989 126.384 C 242.989 126.485,243.196 126.568,243.450 126.568 C 243.737 126.568,243.911 126.673,243.911 126.845 C 243.911 127.014,244.083 127.122,244.353 127.122 C 244.596 127.122,244.842 127.246,244.901 127.399 C 244.959 127.551,245.181 127.675,245.395 127.675 C 245.608 127.675,245.907 127.800,246.060 127.952 C 246.212 128.104,246.544 128.229,246.798 128.229 C 247.051 128.229,247.383 128.353,247.536 128.506 C 247.688 128.658,248.051 128.782,248.342 128.782 C 248.633 128.782,248.923 128.865,248.985 128.967 C 249.048 129.068,249.501 129.151,249.991 129.151 C 250.614 129.151,250.915 129.235,250.989 129.428 C 251.071 129.640,251.429 129.706,252.531 129.711 C 253.500 129.715,254.083 129.805,254.325 129.987 C 254.855 130.388,261.103 130.383,261.505 129.982 C 261.702 129.784,262.184 129.705,263.184 129.705 C 264.261 129.705,264.612 129.640,264.693 129.428 C 264.768 129.235,265.069 129.151,265.692 129.151 C 266.182 129.151,266.628 129.079,266.682 128.991 C 266.737 128.903,267.115 128.777,267.524 128.712 C 267.932 128.647,268.266 128.511,268.266 128.411 C 268.266 128.311,268.463 128.229,268.704 128.229 C 268.946 128.229,269.246 128.104,269.373 127.952 C 269.499 127.800,269.752 127.675,269.936 127.675 C 270.119 127.675,270.393 127.551,270.546 127.399 C 270.698 127.246,270.944 127.122,271.093 127.122 C 271.241 127.122,271.411 126.997,271.469 126.845 C 271.527 126.693,271.744 126.568,271.950 126.568 C 272.156 126.568,272.325 126.485,272.325 126.384 C 272.325 126.282,272.470 126.196,272.648 126.193 C 273.015 126.186,273.801 125.586,273.801 125.313 C 273.801 125.214,274.008 125.080,274.262 125.016 C 274.516 124.953,274.723 124.819,274.723 124.720 C 274.723 124.620,274.827 124.536,274.954 124.533 C 275.243 124.527,276.384 123.502,276.384 123.250 C 276.384 123.147,276.508 123.063,276.661 123.063 C 276.813 123.063,276.937 122.938,276.937 122.786 C 276.937 122.634,277.041 122.505,277.168 122.500 C 277.384 122.492,278.967 120.661,278.967 120.419 C 278.967 120.358,279.216 120.053,279.520 119.742 C 279.825 119.430,280.074 119.012,280.074 118.813 C 280.074 118.613,280.157 118.450,280.258 118.450 C 280.360 118.450,280.443 118.335,280.443 118.193 C 280.443 118.052,280.567 117.888,280.720 117.830 C 280.872 117.772,280.996 117.564,280.996 117.369 C 280.996 117.173,281.121 116.966,281.273 116.907 C 281.425 116.849,281.550 116.591,281.550 116.334 C 281.550 116.077,281.617 115.867,281.699 115.867 C 281.926 115.867,282.472 114.516,282.472 113.954 C 282.472 113.681,282.597 113.409,282.749 113.351 C 282.928 113.282,283.026 112.997,283.026 112.546 C 283.026 112.095,283.124 111.810,283.303 111.741 C 283.482 111.673,283.579 111.386,283.579 110.927 C 283.579 110.537,283.701 110.057,283.850 109.860 C 284.019 109.636,284.123 109.069,284.127 108.349 C 284.130 107.707,284.215 107.196,284.317 107.196 C 284.436 107.196,284.502 105.412,284.502 102.214 C 284.502 99.016,284.436 97.232,284.317 97.232 C 284.214 97.232,284.133 96.717,284.133 96.056 C 284.133 95.235,284.049 94.810,283.856 94.649 C 283.687 94.509,283.579 94.104,283.579 93.606 C 283.579 93.053,283.491 92.759,283.303 92.687 C 283.122 92.617,283.026 92.330,283.026 91.856 C 283.026 91.383,282.930 91.096,282.749 91.026 C 282.578 90.961,282.472 90.680,282.472 90.294 C 282.472 89.950,282.389 89.668,282.288 89.668 C 282.186 89.668,282.103 89.508,282.103 89.312 C 282.103 89.116,281.979 88.832,281.827 88.679 C 281.674 88.527,281.550 88.228,281.550 88.015 C 281.550 87.801,281.433 87.582,281.290 87.527 C 281.147 87.472,280.979 87.226,280.917 86.979 C 280.855 86.733,280.723 86.531,280.624 86.531 C 280.524 86.531,280.443 86.407,280.443 86.255 C 280.443 86.102,280.369 85.978,280.278 85.978 C 280.188 85.978,280.063 85.777,280.002 85.532 C 279.940 85.287,279.558 84.740,279.152 84.318 C 278.746 83.895,278.413 83.487,278.413 83.410 C 278.413 83.334,278.081 82.912,277.675 82.472 C 277.269 82.033,276.937 81.604,276.937 81.519 C 276.937 81.435,276.850 81.365,276.744 81.365 C 276.638 81.365,276.368 81.177,276.144 80.946 C 275.921 80.716,275.427 80.321,275.047 80.070 C 274.668 79.818,274.356 79.550,274.356 79.474 C 274.355 79.398,274.230 79.336,274.077 79.336 C 273.925 79.336,273.801 79.211,273.801 79.059 C 273.801 78.887,273.626 78.782,273.339 78.782 C 273.086 78.782,272.878 78.676,272.878 78.547 C 272.878 78.417,272.505 78.148,272.050 77.947 C 271.594 77.747,271.220 77.521,271.219 77.445 C 271.218 77.369,271.019 77.306,270.776 77.306 C 270.533 77.306,270.287 77.182,270.228 77.030 C 270.170 76.877,269.948 76.753,269.734 76.753 C 269.521 76.753,269.222 76.628,269.070 76.476 C 268.917 76.324,268.559 76.199,268.272 76.199 C 267.980 76.199,267.705 76.078,267.645 75.923 C 267.579 75.749,267.297 75.646,266.888 75.646 C 266.529 75.646,266.236 75.574,266.236 75.487 C 266.236 75.400,265.807 75.277,265.282 75.215 C 264.757 75.153,264.242 75.017,264.138 74.913 C 264.034 74.808,263.280 74.721,262.463 74.717 C 261.451 74.713,260.864 74.625,260.620 74.441 C 260.100 74.048,254.660 74.048,254.140 74.441 M332.011 75.461 C 331.948 75.563,331.768 75.646,331.611 75.646 C 331.454 75.646,331.128 75.833,330.887 76.061 L 330.449 76.476 330.446 102.219 L 330.443 127.962 330.858 128.325 C 331.786 129.136,331.911 129.151,337.741 129.151 C 343.771 129.151,344.649 129.011,344.649 128.046 C 344.649 127.864,344.774 127.667,344.926 127.609 C 345.308 127.462,345.352 76.753,344.970 76.753 C 344.842 76.753,344.655 76.566,344.555 76.338 C 344.455 76.109,344.186 75.841,343.958 75.740 C 343.729 75.640,343.542 75.495,343.542 75.418 C 343.542 75.200,332.146 75.243,332.011 75.461 M142.502 88.653 C 142.571 88.834,142.859 88.930,143.330 88.930 C 143.746 88.930,144.148 89.047,144.280 89.207 C 144.407 89.359,144.736 89.483,145.012 89.483 C 145.410 89.483,145.583 89.627,145.847 90.175 C 146.030 90.556,146.251 91.011,146.337 91.188 C 146.424 91.364,146.494 96.359,146.494 102.289 C 146.494 113.511,146.461 114.027,145.710 114.360 C 145.634 114.394,145.572 114.540,145.572 114.683 C 145.572 114.840,145.385 114.945,145.105 114.945 C 144.848 114.945,144.590 115.069,144.532 115.221 C 144.458 115.413,144.159 115.498,143.560 115.498 C 143.083 115.498,142.606 115.586,142.499 115.693 C 142.392 115.800,141.542 115.937,140.611 115.997 C 139.679 116.058,138.874 116.178,138.821 116.264 C 138.684 116.485,136.393 116.460,136.255 116.236 C 136.192 116.135,135.751 116.048,135.275 116.044 C 134.799 116.039,134.077 115.916,133.672 115.770 C 133.266 115.623,132.757 115.502,132.541 115.501 C 132.325 115.499,132.045 115.374,131.919 115.221 C 131.792 115.069,131.533 114.945,131.343 114.945 C 131.152 114.945,130.996 114.867,130.996 114.773 C 130.996 114.678,130.816 114.543,130.595 114.473 C 130.374 114.403,129.980 114.148,129.720 113.907 C 129.460 113.666,129.101 113.469,128.923 113.469 C 128.744 113.469,128.598 113.382,128.598 113.276 C 128.598 113.170,128.390 112.860,128.137 112.586 C 127.883 112.312,127.675 111.981,127.675 111.850 C 127.675 111.719,127.551 111.564,127.399 111.506 C 127.246 111.447,127.122 111.284,127.122 111.143 C 127.122 111.001,126.997 110.886,126.845 110.886 C 126.675 110.886,126.568 110.713,126.568 110.435 C 126.568 110.188,126.485 109.934,126.384 109.871 C 126.282 109.808,126.199 109.560,126.199 109.320 C 126.199 109.079,126.075 108.758,125.923 108.606 C 125.770 108.453,125.646 108.037,125.646 107.679 C 125.646 107.271,125.534 106.967,125.345 106.861 C 125.081 106.713,125.045 106.160,125.045 102.214 C 125.045 98.268,125.081 97.715,125.345 97.567 C 125.534 97.461,125.646 97.157,125.646 96.749 C 125.646 96.391,125.770 95.975,125.923 95.822 C 126.075 95.670,126.199 95.302,126.199 95.005 C 126.199 94.708,126.282 94.465,126.384 94.465 C 126.485 94.465,126.568 94.308,126.568 94.116 C 126.568 93.924,126.693 93.719,126.845 93.660 C 126.997 93.602,127.122 93.427,127.122 93.271 C 127.122 93.116,127.202 92.989,127.301 92.989 C 127.399 92.989,127.664 92.668,127.890 92.276 C 128.116 91.884,128.559 91.386,128.875 91.169 C 129.192 90.953,129.611 90.628,129.808 90.449 C 130.005 90.269,130.602 89.918,131.135 89.667 C 131.667 89.417,132.103 89.148,132.103 89.071 C 132.103 88.993,132.397 88.930,132.755 88.930 C 133.164 88.930,133.446 88.827,133.513 88.653 C 133.603 88.418,134.277 88.376,138.007 88.376 C 141.738 88.376,142.412 88.418,142.502 88.653 M261.070 88.653 C 261.196 88.805,261.503 88.930,261.752 88.930 C 262.000 88.930,262.328 89.054,262.480 89.207 C 262.632 89.359,262.897 89.483,263.069 89.483 C 263.240 89.483,263.587 89.670,263.840 89.899 C 264.092 90.127,264.610 90.478,264.991 90.678 C 265.371 90.879,265.683 91.149,265.683 91.278 C 265.683 91.407,265.798 91.513,265.938 91.513 C 266.078 91.513,266.248 91.658,266.315 91.836 C 266.582 92.544,266.889 92.989,267.110 92.989 C 267.238 92.989,267.343 93.101,267.343 93.237 C 267.343 93.555,267.866 94.609,268.093 94.749 C 268.188 94.808,268.266 95.103,268.266 95.404 C 268.266 95.721,268.382 95.997,268.542 96.059 C 268.731 96.131,268.819 96.426,268.819 96.981 C 268.819 97.537,268.908 97.832,269.096 97.904 C 269.330 97.994,269.373 98.637,269.373 102.119 C 269.373 105.546,269.327 106.266,269.096 106.458 C 268.935 106.591,268.819 106.993,268.819 107.416 C 268.819 107.817,268.695 108.269,268.542 108.421 C 268.390 108.573,268.266 108.906,268.266 109.159 C 268.266 109.413,268.141 109.745,267.989 109.897 C 267.837 110.049,267.712 110.334,267.712 110.530 C 267.712 110.725,267.629 110.886,267.528 110.886 C 267.426 110.886,267.343 111.001,267.343 111.143 C 267.343 111.284,267.219 111.447,267.066 111.506 C 266.914 111.564,266.790 111.781,266.790 111.987 C 266.790 112.197,266.668 112.362,266.513 112.362 C 266.361 112.362,266.236 112.448,266.236 112.554 C 266.236 112.853,264.736 114.206,264.276 114.321 C 264.050 114.378,263.819 114.541,263.765 114.685 C 263.710 114.828,263.493 114.945,263.284 114.945 C 263.075 114.945,262.856 115.069,262.797 115.221 C 262.739 115.374,262.468 115.498,262.194 115.498 C 261.921 115.498,261.607 115.588,261.497 115.698 C 261.387 115.808,260.787 115.945,260.164 116.001 C 259.540 116.058,258.986 116.175,258.932 116.262 C 258.805 116.468,257.063 116.469,256.936 116.263 C 256.882 116.177,256.235 116.056,255.497 115.994 C 254.760 115.932,254.127 115.795,254.092 115.690 C 254.057 115.584,253.841 115.498,253.611 115.498 C 253.382 115.498,252.829 115.290,252.381 115.035 C 251.934 114.780,251.423 114.522,251.245 114.460 C 251.068 114.399,250.923 114.275,250.923 114.185 C 250.923 114.095,250.807 114.022,250.665 114.022 C 250.524 114.022,250.361 113.898,250.302 113.745 C 250.244 113.593,250.080 113.469,249.939 113.469 C 249.797 113.469,249.451 113.137,249.170 112.731 C 248.888 112.325,248.587 111.993,248.499 111.993 C 248.411 111.993,248.339 111.875,248.339 111.731 C 248.339 111.587,248.277 111.442,248.201 111.408 C 247.999 111.318,247.417 110.162,247.417 109.850 C 247.417 109.703,247.292 109.535,247.140 109.476 C 246.982 109.416,246.863 109.141,246.863 108.836 C 246.863 108.485,246.769 108.303,246.587 108.303 C 246.374 108.303,246.310 108.067,246.310 107.288 C 246.310 106.730,246.227 106.273,246.125 106.273 C 246.008 106.273,245.941 104.801,245.941 102.225 C 245.941 99.725,246.012 98.133,246.125 98.063 C 246.227 98.000,246.310 97.538,246.310 97.037 C 246.310 96.350,246.378 96.125,246.587 96.125 C 246.761 96.125,246.863 95.950,246.863 95.651 C 246.863 95.390,246.988 95.052,247.140 94.900 C 247.292 94.748,247.417 94.463,247.417 94.267 C 247.417 94.072,247.494 93.911,247.589 93.911 C 247.684 93.911,247.819 93.725,247.891 93.496 C 247.962 93.268,248.071 93.040,248.134 92.989 C 248.316 92.841,248.710 92.186,248.828 91.836 C 248.887 91.658,249.051 91.513,249.191 91.513 C 249.332 91.513,249.446 91.388,249.446 91.236 C 249.446 91.084,249.571 90.959,249.723 90.959 C 249.875 90.959,250.000 90.835,250.000 90.683 C 250.000 90.530,250.154 90.406,250.342 90.406 C 250.530 90.406,250.908 90.198,251.182 89.945 C 251.456 89.691,251.841 89.483,252.039 89.483 C 252.237 89.483,252.399 89.359,252.399 89.207 C 252.399 89.013,252.594 88.930,253.050 88.930 C 253.459 88.930,253.741 88.827,253.808 88.653 C 253.897 88.421,254.469 88.376,257.377 88.376 C 260.231 88.376,260.881 88.425,261.070 88.653 " stroke="none" fill="#040404" fill-rule="evenodd"></path><path id="path2" d="" stroke="none" fill="#8004b4" fill-rule="evenodd"></path><path id="path3" d="" stroke="none" fill="#44043c" fill-rule="evenodd"></path><path id="path4" d="" stroke="none" fill="#040440" fill-rule="evenodd"></path></g></svg>